<svg viewBox="0 0 97 97" fill="none" xmlns="http://www.w3.org/2000/svg">
<rect y="48.5" width="68.5894" height="68.5894" rx="14" transform="rotate(-45 0 48.5)" fill="url(#paint0_linear_1028_4780)"/>
<path d="M65.3583 29.2783H31.9635C30.7708 29.2783 29.5781 30.471 29.5781 31.6637V58.4991C29.5781 59.6918 30.7708 60.8844 31.9635 60.8844H43.8902V63.2698C43.8902 64.9262 41.7415 65.6551 39.1195 65.6551V67.4438H58.2022V65.6545C55.5796 65.6545 53.4316 64.9255 53.4316 63.2691V60.8838H65.3583C66.5509 60.8838 67.7436 59.6911 67.7436 58.4985V31.6637C67.7436 30.471 66.5509 29.2783 65.3583 29.2783ZM66.4714 58.4991C66.4714 58.9882 65.8468 59.6122 65.3583 59.6122H31.9635C31.4743 59.6122 30.8503 58.9882 30.8503 58.4991V56.1137H66.4714V58.4991Z" fill="white"/>
<path d="M48.7724 59.0966C49.102 59.0966 49.3691 58.8295 49.3691 58.5C49.3691 58.1705 49.102 57.9033 48.7724 57.9033C48.4429 57.9033 48.1758 58.1705 48.1758 58.5C48.1758 58.8295 48.4429 59.0966 48.7724 59.0966Z" fill="white"/>
<g clip-path="url(#clip0_1028_4780)">
<path d="M43.8073 40.0633C42.1136 41.477 42.1136 44.0793 43.8073 45.493C43.9173 45.581 44.0086 45.6901 44.0758 45.8139C44.1431 45.9377 44.185 46.0736 44.199 46.2138C44.213 46.354 44.1988 46.4955 44.1574 46.6301C44.1159 46.7648 44.048 46.8898 43.9576 46.9978C43.8672 47.1058 43.7561 47.1947 43.6309 47.2592C43.5056 47.3237 43.3688 47.3626 43.2284 47.3735C43.0879 47.3844 42.9467 47.3671 42.813 47.3227C42.6793 47.2783 42.5559 47.2076 42.4499 47.1149L38.219 43.5891C38.1004 43.4898 38.0051 43.3658 37.9396 43.2257C37.8742 43.0856 37.8403 42.9328 37.8403 42.7782C37.8403 42.6236 37.8742 42.4708 37.9396 42.3307C38.0051 42.1906 38.1004 42.0665 38.219 41.9673L42.4499 38.4415C42.6658 38.2688 42.9407 38.1874 43.2158 38.2149C43.4909 38.2424 43.7444 38.3765 43.9218 38.5885C44.0993 38.8005 44.1867 39.0736 44.1652 39.3493C44.1438 39.6249 44.0153 39.8813 43.8073 40.0633ZM59.3206 41.9673L55.0897 38.4415C54.8738 38.2688 54.5989 38.1874 54.3238 38.2149C54.0487 38.2424 53.7952 38.3765 53.6178 38.5885C53.4403 38.8005 53.3529 39.0736 53.3743 39.3493C53.3958 39.6249 53.5243 39.8813 53.7323 40.0633C55.4289 41.4756 55.4289 44.0807 53.7323 45.493C53.6248 45.5815 53.5361 45.6904 53.4711 45.8136C53.4062 45.9367 53.3664 46.0715 53.3541 46.2101C53.3418 46.3488 53.3572 46.4885 53.3994 46.6211C53.4417 46.7537 53.5099 46.8766 53.6001 46.9827C53.7001 47.1004 53.8243 47.1951 53.9642 47.2605C54.1042 47.326 54.2566 47.3604 54.411 47.3617C54.6592 47.3616 54.8995 47.2742 55.0897 47.1149L59.3206 43.5891C59.4392 43.4898 59.5345 43.3658 59.5999 43.2257C59.6654 43.0856 59.6993 42.9328 59.6993 42.7782C59.6993 42.6236 59.6654 42.4708 59.5999 42.3307C59.5345 42.1906 59.4392 42.0665 59.3206 41.9673ZM51.9518 34.0255C51.6875 33.9315 51.3969 33.9455 51.1429 34.0642C50.8888 34.183 50.6918 34.3971 50.5944 34.6601L44.9532 50.1735C44.8592 50.4377 44.8732 50.7283 44.9919 50.9824C45.1107 51.2365 45.3248 51.4335 45.5878 51.5309C45.7037 51.5727 45.826 51.5936 45.9492 51.5926C46.1667 51.593 46.379 51.5264 46.5572 51.4017C46.7354 51.2771 46.8709 51.1006 46.9452 50.8963L52.5864 35.3829C52.6804 35.1186 52.6664 34.828 52.5477 34.574C52.4289 34.3199 52.2148 34.1228 51.9518 34.0255Z" fill="url(#paint1_linear_1028_4780)"/>
</g>
<defs>
<linearGradient id="paint0_linear_1028_4780" x1="0.353551" y1="48.1464" x2="68.9429" y2="116.736" gradientUnits="userSpaceOnUse">
<stop stop-color="#7651C0"/>
<stop offset="1" stop-color="#31ACCB"/>
</linearGradient>
<linearGradient id="paint1_linear_1028_4780" x1="58.7463" y1="34.7648" x2="37.4981" y2="61.1118" gradientUnits="userSpaceOnUse">
<stop stop-color="#3C96EA"/>
<stop offset="1" stop-color="#000E1C"/>
</linearGradient>
<clipPath id="clip0_1028_4780">
<rect x="37.4888" y="31.4951" width="22.5649" height="22.5649" fill="white"/>
</clipPath>
</defs>
</svg>
